<svg id="visual" viewBox="0 0 900 600" width="900" height="600" xmlns="http://www.w3.org/2000/svg" xmlns:xlink="http://www.w3.org/1999/xlink" version="1.1"><rect x="0" y="0" width="900" height="600" fill="#263656"></rect><defs><linearGradient id="grad1_0" x1="33.3%" y1="0%" x2="100%" y2="100%"><stop offset="20%" stop-color="#284786" stop-opacity="1"></stop><stop offset="80%" stop-color="#284786" stop-opacity="1"></stop></linearGradient></defs><defs><linearGradient id="grad1_1" x1="33.3%" y1="0%" x2="100%" y2="100%"><stop offset="20%" stop-color="#284786" stop-opacity="1"></stop><stop offset="80%" stop-color="#273f6e" stop-opacity="1"></stop></linearGradient></defs><defs><linearGradient id="grad1_2" x1="33.3%" y1="0%" x2="100%" y2="100%"><stop offset="20%" stop-color="#263656" stop-opacity="1"></stop><stop offset="80%" stop-color="#273f6e" stop-opacity="1"></stop></linearGradient></defs><defs><linearGradient id="grad2_0" x1="0%" y1="0%" x2="66.7%" y2="100%"><stop offset="20%" stop-color="#284786" stop-opacity="1"></stop><stop offset="80%" stop-color="#284786" stop-opacity="1"></stop></linearGradient></defs><defs><linearGradient id="grad2_1" x1="0%" y1="0%" x2="66.7%" y2="100%"><stop offset="20%" stop-color="#273f6e" stop-opacity="1"></stop><stop offset="80%" stop-color="#284786" stop-opacity="1"></stop></linearGradient></defs><defs><linearGradient id="grad2_2" x1="0%" y1="0%" x2="66.7%" y2="100%"><stop offset="20%" stop-color="#273f6e" stop-opacity="1"></stop><stop offset="80%" stop-color="#263656" stop-opacity="1"></stop></linearGradient></defs><g transform="translate(900, 0)"><path d="M0 486.7C-39.1 446.2 -78.1 405.7 -128.9 396.6C-179.6 387.4 -242 409.7 -286.1 393.8C-330.2 377.9 -355.8 324 -381.9 277.4C-407.9 230.9 -434.2 191.8 -451.8 146.8C-469.3 101.8 -478 50.9 -486.7 0L0 0Z" fill="#263a62"></path><path d="M0 324.5C-26 297.5 -52.1 270.5 -85.9 264.4C-119.7 258.3 -161.4 273.1 -190.7 262.5C-220.1 251.9 -237.2 216 -254.6 185C-271.9 153.9 -289.5 127.9 -301.2 97.9C-312.9 67.9 -318.7 33.9 -324.5 0L0 0Z" fill="#27437a"></path><path d="M0 162.2C-13 148.7 -26 135.2 -43 132.2C-59.9 129.1 -80.7 136.6 -95.4 131.3C-110.1 126 -118.6 108 -127.3 92.5C-136 77 -144.7 63.9 -150.6 48.9C-156.4 33.9 -159.3 17 -162.2 0L0 0Z" fill="#284786"></path></g><g transform="translate(0, 600)"><path d="M0 -486.7C53.9 -480.8 107.8 -474.9 145.5 -447.9C183.2 -421 204.7 -373.1 253.3 -348.7C301.9 -324.3 377.7 -323.5 393.8 -286.1C409.9 -248.7 366.3 -174.6 371.9 -120.8C377.4 -67 432.1 -33.5 486.7 0L0 0Z" fill="#263a62"></path><path d="M0 -324.5C35.9 -320.5 71.9 -316.6 97 -298.6C122.2 -280.7 136.5 -248.7 168.9 -232.5C201.3 -216.2 251.8 -215.7 262.5 -190.7C273.3 -165.8 244.2 -116.4 247.9 -80.6C251.6 -44.7 288.1 -22.3 324.5 0L0 0Z" fill="#27437a"></path><path d="M0 -162.2C18 -160.3 35.9 -158.3 48.5 -149.3C61.1 -140.3 68.2 -124.4 84.4 -116.2C100.6 -108.1 125.9 -107.8 131.3 -95.4C136.6 -82.9 122.1 -58.2 124 -40.3C125.8 -22.3 144 -11.2 162.2 0L0 0Z" fill="#284786"></path></g></svg>