<svg viewBox="0 0 500 500" xmlns="http://www.w3.org/2000/svg" xmlns:bx="https://boxy-svg.com">
  <defs></defs>
  <path style="fill: rgb(216, 216, 216); stroke: rgb(0, 0, 0); fill-opacity: 0; stroke-linecap: round; stroke-width: 22px;" d="M 131.888 447.393 C 131.888 447.393 136.57944573677574 175.99855174598568 137.775 102.344 C 138.33809842293883 67.65317649979582 131.36574395762753 27.71369603649473 138.954 25.798 C 149.89747324315852 23.035261341691566 192.7525750688036 165.26714809986487 216.679 164.759 C 238.78200549494102 164.28957758207275 263.1548159468401 41.549896156488906 277.914 43.462 C 292.35257787242375 45.33256819301506 290.34783216871 168.6623762960999 305.001 170.648 C 319.9513726278131 172.67389737684812 354.3007496978394 47.30487534103699 367.416 50.529 C 390.17039458476177 56.12271746556901 366.239 457.992 366.239 457.992" bx:d="M 131.888 447.393 R 137.775 102.344 R 138.954 25.798 R 216.679 164.759 R 277.914 43.462 R 305.001 170.648 R 367.416 50.529 R 366.239 457.992 1@8c4e6e31"></path>
  <line style="fill: rgb(216, 216, 216); stroke: rgb(0, 0, 0); stroke-linecap: round; stroke-width: 12px;" x1="178.196" y1="259.257" x2="238.009" y2="260.222"></line>
  <line style="fill: rgb(216, 216, 216); stroke: rgb(0, 0, 0); stroke-linecap: round; stroke-width: 12px;" x1="274.188" y1="262.151" x2="334.001" y2="263.115"></line>
  <path style="fill: rgb(216, 216, 216); stroke: rgb(0, 0, 0); stroke-width: 16px; stroke-linecap: round; fill-opacity: 0;" d="M 223.584 394.049 C 223.584 394.049 289.39380927408223 374.3284356543513 294.703 362.256 C 297.4704985786048 355.96305438201426 288.009 342.175 288.009 342.175" transform="matrix(0.846317, 0.53268, -0.53268, 0.846317, 235.950826, -81.602975)" bx:d="M 223.584 394.049 R 294.703 362.256 R 288.009 342.175 1@8809ce84"></path>
</svg>
