<svg viewBox="0 0 500 500" xmlns="http://www.w3.org/2000/svg">
  <defs></defs>
  <path style="fill: rgb(216, 216, 216); stroke-linecap: round; stroke-linejoin: round; fill-opacity: 0; stroke: rgb(33, 31, 31); stroke-width: 41px;" d="M 75.165 123.334 C 75.165 151.974 77.404 176.525 77.404 206.165"></path>
  <path style="fill: rgb(216, 216, 216); fill-opacity: 0; stroke: rgb(30, 28, 28); stroke-linecap: round; stroke-linejoin: round; stroke-width: 41px;" d="M 268.81 146.84 C 268.81 182.19 264.331 204.9 264.331 239.745"></path>
  <path style="stroke-linecap: round; stroke-linejoin: round; stroke: rgb(34, 33, 33); fill-opacity: 0; fill: rgb(34, 33, 33); stroke-width: 28px;" d="M 362.832 49.459 C 368.784 46.484 380.574 46.269 384.099 42.743 C 394.877 31.966 412.082 49.972 412.082 58.414 C 412.082 77.217 387.513 110.014 399.77 134.527 C 403.847 142.682 431.594 151.636 443.425 145.72 C 445.871 144.497 455.013 139.005 455.737 139.005"></path>
  <path style="fill: rgb(216, 216, 216); stroke: rgb(30, 28, 28); stroke-linecap: round; stroke-linejoin: round; stroke-width: 41px;" d="M 85.239 333.769 L 371.787 422.195"></path>
  <path d="M 421.926 169.344 C 424.626 168.891 429.31 169.005 431.916 169.932 C 434.081 170.702 435.708 171.782 436.911 173.753 C 438.408 176.202 439.733 181.242 439.262 184.33 C 438.833 187.142 437.348 190.043 434.854 191.677 C 431.843 193.648 424.892 194.681 421.338 194.027 C 418.463 193.498 416.1 191.872 414.58 189.619 C 412.869 187.085 411.757 182.13 412.229 179.042 C 412.658 176.23 414.847 173.318 416.636 171.695 C 418.166 170.308 419.756 169.709 421.926 169.344 Z" style="stroke: rgb(34, 33, 33); fill: rgb(34, 33, 33); stroke-width: 7px;"></path>
</svg>